<?xml version="1.0" encoding="UTF-8"?>
<svg width="752pt" height="752pt" version="1.1" viewBox="0 0 752 752" xmlns="http://www.w3.org/2000/svg">
 <g>
  <path d="m524.66 406.88c-0.84375-1.5469-0.74219-3.4414 0.25-4.8984l47.113-68.906c0.21484-0.46094 0.42578-0.91016 0.64453-1.375l11.27-39.746c1.0391-3.6562-2.4727-6.9727-6.0625-5.7266l-28.457 9.8516c-0.77344 0.26562-1.6016 0.32812-2.4062 0.17969l-9.082-1.7031c-0.93359-0.17578-1.7891-0.625-2.457-1.2969l-25.039-25.039c-0.20703-0.25391-0.41016-0.50781-0.61719-0.76172l-47.434-72.973 0.80859-0.60547c1.293-0.97266 1.8945-2.6094 1.5391-4.1875l-3.4297-15.184c-0.60547-2.6797-3.3672-4.2734-5.9922-3.4531l-5.8047 1.8125c-0.70703 0.21875-1.4492 0.26953-2.1719 0.15234l-7.7461-1.293c-1.3672-0.22656-2.7656 0.15625-3.8164 1.0547l-4.0625 3.457c-1.0234 0.87109-2.3672 1.2578-3.6992 1.0742l-39.133-5.4922c-0.40234-0.003906-0.80469-0.007812-1.207-0.015624l-9.9727 1.1875c-2.793 0.33203-4.5547 3.0078-3.9961 5.7617 0.79688 3.8984-2.8164 7.1953-6.5859 6.1133l-49.109-14.031c-2.4102-0.6875-3.6484-3.3594-2.6094-5.6406l0.59766-1.3086c0.67188-1.4766 0.40625-3.2109-0.66797-4.4219l-8.1367-9.1406c-1.1367-1.2773-2.875-1.8359-4.543-1.4648l-45.93 10.281c-0.34766 0.125-0.6875 0.24219-1.0312 0.35938l-25.355 12.352c-1.5312 0.74219-3.4648 0.79688-4.7578-0.3125-2.2031-1.8906-5.6055-0.95703-6.5508 1.7773l-1.5 4.3555c-0.21484 0.41016-0.42578 0.82031-0.64453 1.2305l-16.297 22.41c-0.58203 0.80469-0.89844 1.7695-0.89844 2.7656v11.035c0 0.89844-0.25391 1.7812-0.74219 2.5391l-34.656 54.062c-0.81641 1.2695-0.97266 2.8516-0.41797 4.2539l5.3711 13.695c0.23828 0.60156 0.34766 1.2461 0.32031 1.8906l-1.3359 36.055c-0.0625 1.6328 0.73047 3.1836 2.0938 4.0859l22.773 15.184c0.9375 0.625 1.6211 1.5664 1.9219 2.6523l2.5664 9.25c0.39844 1.4297 1.4492 2.5898 2.8359 3.1289l28.754 11.109c0.86719 0.33594 1.8086 0.40625 2.7148 0.20312l37.73-8.3828c0.32812-0.11328 0.65234-0.22266 0.98047-0.33594l22.773-10.719c1.0938-0.51562 2.3438-0.58594 3.4922-0.20703l7.2734 2.4258c1.2266 0.40625 2.1875 1.3672 2.5938 2.5938l0.50781 1.5234c0.60938 1.8281 2.4102 2.9883 4.3281 2.7812l15.102-1.6211c1.3672-0.14844 2.7383 0.31641 3.7383 1.2656l6.6992 6.3555c1.1133 1.0547 1.6445 2.5898 1.4141 4.1094l-3.4102 22.723c-0.25391 1.6914 0.42969 3.3867 1.7852 4.4297l15.875 12.215c0.66406 0.50781 1.1758 1.1836 1.4883 1.957l16.586 40.766c0.35547 0.875 0.44141 1.8438 0.24219 2.7656l-8.8555 40.883c-0.24219 1.1133-0.070312 2.2734 0.47656 3.2734l44.793 81.047c0.38281 0.69531 0.58594 1.4766 0.58594 2.2734v5.0898c0 1.1406 0.41016 2.2383 1.1641 3.0977l7.0703 8.0859c1.2344 1.4102 3.1953 1.957 4.9805 1.3789l19.098-6.1602c0.48438-0.074219 0.96094-0.15234 1.4453-0.22656h11.773c1.375 0 2.6758-0.60156 3.5703-1.6445l37.086-43.266c0.73047-0.85156 1.1328-1.9375 1.1328-3.0586v-15.102c0-1.8125 1.043-3.4648 2.6797-4.2461l9.4727-4.5078c1.9219-0.91406 2.9883-3.0078 2.6055-5.0977l-4.0508-21.984c-0.27344-1.4766 0.17969-3.0039 1.2188-4.0898l25.129-26.453c0.71484-0.75391 1.1641-1.7227 1.2695-2.7617l3.3594-32.914c0.09375-0.94141-0.09375-1.8906-0.54297-2.7227z"/>
  <path d="m582.62 437.93c-1.5352-3.3984-6.2266-3.7461-8.2422-0.60547l-7.9297 12.328c-0.39844 0.61719-0.93359 1.1328-1.5625 1.5078l-13.555 8.0078c-1.0469 0.62109-1.8125 1.6211-2.1406 2.7891l-2.6172 9.4375c-0.34766 1.2422-0.16406 2.5703 0.49609 3.6797l4.3516 7.2539c0.76172 1.2695 0.88281 2.8281 0.32031 4.1992l-5.1211 12.512c-0.38281 0.94141-0.45312 1.9844-0.19922 2.9688l3.5 13.41c0.32031 1.2461 1.1406 2.3008 2.2695 2.9219l3.1914 1.7773c1.0625 0.58594 2.3047 0.74219 3.4805 0.4375l9.3438-2.457c1.6992-0.44922 3.0117-1.8086 3.3945-3.5273l12.328-55.477c0.17188-0.76172 0.55469-1.457 1.1016-2.0117l1.9922-1.9922c1.3828-1.3828 1.7656-3.4766 0.96094-5.2617z"/>
 </g>
</svg>
