<?xml version="1.0" encoding="UTF-8"?>
<svg width="752pt" height="752pt" version="1.1" viewBox="0 0 752 752" xmlns="http://www.w3.org/2000/svg">
 <g>
  <path d="m601.52 234.75-42.969-9.918c-0.35547-0.042969-0.70703-0.082031-1.0547-0.11719h-37.508c-0.18359-0.007813-0.375-0.023438-0.55859-0.03125l-81.422-9.7461c-0.50391 0.019531-1 0.042969-1.5 0.0625l-22.91 4.6875c-1.2109 0.24609-2.4766 0.007812-3.5078-0.66797l-10.645-6.9414c-0.71484-0.46484-1.543-0.73047-2.3945-0.76172l-43.016-1.5742c-1.6055-0.058594-2.668-1.6914-2.0703-3.1836l0.082031-0.20703c0.53125-1.332-0.25391-2.8164-1.6523-3.1289l-27.383-6.0859c-0.85547-0.1875-1.7461-0.13672-2.5703 0.15234l-44.438 15.551c-0.51953 0.089844-1.0312 0.17578-1.5547 0.26562h-23.844c-2.9062 0-5.1133 2.6094-4.6406 5.4727l0.88672 5.3242c0.31641 1.8945-0.55469 3.793-2.1914 4.7891l-8.1875 4.9805c-1.5078 0.91406-2.3711 2.5938-2.2461 4.3516l2.6484 37.035c0.039062 0.49609 0.15234 0.98828 0.34766 1.4492l1.0195 2.4453c0.91016 2.1797 3.3086 3.3242 5.5742 2.6562l2.1211-0.625c2.1719-0.64062 4.4883 0.38672 5.4727 2.4297l3.0273 6.2812c1.3867 2.8828-0.44922 6.2852-3.6289 6.6992l-22.051 2.8945c-3.3086 0.4375-5.125 4.082-3.4805 6.9844l17.855 31.484c0.49609 0.875 0.69922 1.8867 0.57813 2.8828l-1.2891 10.629c-0.40234 3.3281-4.0625 5.1758-6.9805 3.5273l-4.5-2.543c-1.6445-0.92969-2.5586-2.7656-2.3125-4.6367l0.28125-2.0898c0.27344-2.0742-0.875-4.082-2.8125-4.8828l-23.926-9.9297c-2.0742-0.86328-4.4688-0.13281-5.7148 1.7344l-2.9258 4.3906c-1.1328 1.6953-3.2266 2.4727-5.1875 1.918l-14.137-3.9688c-0.76172-0.21484-1.5664-0.23047-2.3398-0.050781l-18.93 4.4062c-2.6367 0.60938-4.2148 3.3203-3.4414 5.9141l2.4336 8.2109c0.48828 1.6484 1.8438 2.9023 3.5234 3.2617l22.008 4.7188c3.5 0.75 4.9102 4.9766 2.5664 7.6758l-7.6289 8.8047c-1.3438 1.5547-1.5312 3.793-0.45313 5.5391l43.828 71.289c1.3984 2.2734 4.4062 2.9297 6.625 1.4453l48.84-32.723c2.5898-1.7344 2.8047-5.4648 0.42969-7.4883l-9.3438-7.9609c-1.0234-0.87109-2.3633-1.2578-3.6953-1.0781l-12.438 1.7148c-1.457 0.19922-2.9258-0.29297-3.9688-1.3359l-12.828-12.828c-1.4062-1.4062-1.7578-3.5547-0.86719-5.3359l0.40625-0.80859c1.1797-2.3633 4.0977-3.2578 6.3984-1.9648l24.129 13.512c0.47656 0.17578 0.95312 0.34766 1.4297 0.51953l35.652 6.6836c0.47656 0.17578 0.94531 0.33984 1.4258 0.51562l22.719 12.684c1.0195 0.56641 1.7852 1.4922 2.1602 2.5938l17.309 50.938c1.1211 3.3008 5.3125 4.2773 7.7773 1.8125l3.6758-3.6758c0.91406-0.91406 1.4102-2.1602 1.375-3.4531l-0.47656-17.699c-0.027343-1.1367 0.35156-2.2461 1.0742-3.1211l20.051-24.27c0.58203-0.70703 1.3594-1.2266 2.2305-1.4961l11.551-3.5859c2.2578-0.69922 4.6836 0.38281 5.668 2.5352l9.2695 20.223c1.0117 2.207 3.5391 3.2812 5.8281 2.4805l2.3125-0.80859c2.75-0.96094 5.707 0.78125 6.1914 3.6562l5.2422 30.98c0.14062 0.82812 0.50391 1.6055 1.043 2.2461l20.043 23.773c1.3984 1.6562 4.0977 0.66797 4.0977-1.4961v-3.3438c0-0.48828-0.15625-0.96484-0.44141-1.3594l-18.133-25.066c-0.75-1.0312-1.0312-2.3242-0.79688-3.5742l0.34766-1.8281c0.69531-3.6406 5.1367-5.0859 7.8359-2.5469l9.9375 9.3359c1.7109 1.6094 4.3477 1.7031 6.1758 0.23047l10.453-8.4375c0.9375-0.75781 1.5469-1.8438 1.7031-3.0352l0.57422-4.3047c0.21484-1.5859-0.39844-3.1719-1.6211-4.207l-14.781-12.539c-1.4648-1.2422-2.0273-3.25-1.4219-5.0703l3.1484-9.4492c0.64062-1.9219 2.4375-3.2148 4.4609-3.2148h10.242c0.58203 0 1.1602-0.10938 1.7031-0.32031l18.121-7.0469c1.2461-0.48438 2.2305-1.4766 2.6992-2.7344l8.8906-23.711c0.51562-1.3828 0.35938-2.9258-0.42969-4.1719l-13.699-21.605c-0.10547-0.14844-0.20703-0.28906-0.3125-0.4375l-9.6289-11.992c-2.1719-2.6953-0.78516-6.7383 2.5859-7.5312l9.6953-2.2812c1.7031-0.40234 3.4922 0.17969 4.6367 1.5078l17.445 20.199c1.5625 1.8086 4.2422 2.1328 6.1914 0.73828 2.4102-1.7188 2.6055-5.2344 0.39844-7.207l-10.055-9.0156c-1.4883-1.3359-1.9688-3.4648-1.2031-5.3086l2.9688-7.1211c0.89062-2.1367 3.2266-3.2852 5.4609-2.6914l0.47656 0.12891c2.4102 0.64453 4.8984-0.74219 5.6211-3.1289l5.7578-19.047c0.32031-1.0625 0.25391-2.1992-0.17969-3.2148l-7.2891-17.008c-0.47656-1.1172-1.375-2.0078-2.4922-2.4805l-21.512-9.082c-1.7422-0.73438-2.875-2.4453-2.875-4.332v-6.1133c0-2.5938 2.1094-4.7031 4.7031-4.7031h26.848c2.4961 0 4.5547-1.9492 4.6992-4.4414l0.11719-2.1133c0.125-2.25 1.8516-4.082 4.0898-4.3398l11.074-1.2656c2.8359-0.32813 5.3086 1.9375 5.2344 4.793l-0.38672 15.156c-0.03125 1.3242 0.49219 2.6055 1.4531 3.5234l15.137 14.449c3.1211 2.9805 8.2734 0.53125 7.9375-3.7695l-0.63281-8.0078c-0.089844-1.1523-0.60156-2.2266-1.4297-3.0195l-8.0586-7.7383c-2.4375-2.3438-1.6797-6.418 1.4336-7.7305l18.34-7.707c2.2969-0.96484 3.4414-3.5508 2.6133-5.9023l-0.82812-2.3438c-0.55859-1.5781 0.6875-3.2109 2.3555-3.0859l18.367 1.3125c1.3438 0.085937 2.4844-0.98047 2.4844-2.3281v-2.0469c0-1.082-0.75-2.0195-1.8008-2.2656z"/>
  <path d="m475 529.29 15.715-1.2422c1.7578-0.13672 3.2852-1.2461 3.9688-2.8711l6.207-14.801c0.10938-0.38672 0.21484-0.76562 0.31641-1.1562l1.9023-13.336c0.20703-1.4648-0.28516-2.9453-1.332-3.9922l-4.4375-4.4375c-1.7852-1.7852-4.6562-1.8438-6.5117-0.13281l-23.941 22.062c-1.4219 1.3086-1.8945 3.3516-1.1992 5.1562l4.5469 11.75c0.76172 1.9492 2.6953 3.1602 4.7656 3z"/>
  <path d="m494.76 545.1-35.855-4.9961c-2.6328-0.36328-4.4414-2.8398-3.9844-5.4648l1.043-5.9844c0.28125-1.6016-0.28906-3.2344-1.5-4.3125l-19.535-17.422-9.4297-7.7656c-2.0117-1.6562-4.8086 0.74219-3.4727 2.9844l10.977 18.414c0.13672 0.19531 0.26953 0.38281 0.40625 0.57812l20.234 24.613c0.66406 0.80469 1.5781 1.3672 2.5938 1.6016l33.52 7.5664c0.60938 0.019532 1.207 0.03125 1.8242 0.046876l3.3086-0.55859c5.3086-0.90234 5.1953-8.5547-0.12891-9.3008z"/>
  <path d="m548.09 331.57 2.8555-2.5703c1.9688-1.7773 2.0898-4.832 0.25-6.75l-19.98-20.887c-1.9219-2.0117-5.1133 0.44531-3.6602 2.8164l10.285 16.785c0.20312 0.51953 0.40234 1.0312 0.60547 1.5547l4.7812 24.441c-0.10547 0.94531-0.19922 1.832-0.30469 2.7812l-4.6641 10.727c-0.59375 0.69922-1.1406 1.3555-1.7344 2.0547l-13.172 8.6445c-2.2891 1.5-2.8164 4.6328-1.1445 6.8008 1.5234 1.9805 4.3281 2.4258 6.3867 1.0078l23.066-15.832c1.7031-1.168 2.4492-3.3203 1.8242-5.293l-6.75-21.371c-0.53906-1.7578-0.015625-3.6758 1.3555-4.9102z"/>
  <path d="m511.51 450.24c-0.22656-0.59375-0.44531-1.1602-0.67187-1.7539l-1.6055-9.6289c-0.26953-1.6133-2.082-2.4531-3.4844-1.6094l-2.5469 1.5312c-1.8906 1.1328-2.7383 3.4297-2.043 5.5234l12.18 36.547c0.35937 1.0859 1.1016 2 2.0938 2.5781l7.5898 4.4297c2.5195 1.4688 5.75 0.31641 6.7734-2.4102l0.69922-1.875c0.51953-1.3828 0.35547-2.9297-0.4375-4.1758z"/>
  <path d="m515.77 521.44c-0.88281-3.2812-4.8438-4.5742-7.4922-2.4453l-3.0781 2.4766c-1.1094 0.89453-1.7539 2.2383-1.7539 3.6602v8.4336c0 2.5938 2.1094 4.7031 4.7031 4.7031h6.0039c3.0938 0 5.3438-2.9375 4.543-5.918z"/>
 </g>
</svg>
