<?xml version="1.0" encoding="UTF-8"?>
<svg width="752pt" height="752pt" version="1.1" viewBox="0 0 752 752" xmlns="http://www.w3.org/2000/svg">
 <g>
  <path d="m550.75 463.61-23.207-7.5781s-0.47266 0-0.47266-0.47266l-10.418-9.4727c-0.47266-0.47266-0.47266-0.47266-0.47266-0.94531l-0.94922-7.5781c-0.47266-2.8398-2.8398-4.7344-5.6836-4.7344h-9.9453c-0.94531 0-1.4219-0.47266-1.4219-1.4219l-1.4219-5.6836c0-0.94531 0.47266-1.8945 0.94531-1.8945l1.8945-0.47266c1.8945-0.47266 3.3164-2.3672 3.7891-4.2617 0.47266-1.8945 0-4.2617-1.8945-5.6836l-8.0508-7.1055c-0.47266-0.47266-0.47266-0.47266-0.47266-0.94531l-0.47266-8.0508c0-2.3672-1.8945-4.7344-4.7344-5.2109l-14.68-2.8398c-0.94531 0-1.4219-0.94531-1.4219-1.4219l-0.94531-22.258c0-0.47266 0-0.94531-0.47266-1.8945l-3.7891-10.418c-0.47266-0.94531 0-1.8945 0.94531-1.8945l3.7891-1.4219c0.94531-0.47266 1.4219-1.4219 0.94531-2.3672 0-0.94531-0.94531-1.4219-1.8945-1.4219h-19.891c-2.3672 0-4.2617 1.4219-5.2109 3.7891l-1.8945 5.2109c-0.47266 1.4219-0.47266 3.3164 0.47266 4.7344l4.2617 8.5234c0.47266 0.47266 0.47266 0.94531 0 1.4219l-3.7891 6.6289c-0.47266 0.94531-1.4219 1.4219-2.3672 0.47266l-3.7891-3.3164c-0.94531-0.94531-2.3672-1.4219-3.7891-1.4219-2.8398 0-4.7344 1.8945-5.6836 4.2617l-4.7344 19.418-4.7344 13.734c0 0.47266-0.94531 0.94531-1.4219 0.94531h-9.9453c-0.94531 0-1.4219-0.47266-1.4219-0.94531l-0.94531-2.3672c-0.47266-0.94531-1.4219-1.4219-2.3672-1.4219l-16.574 4.7344c-1.8945 0.47266-2.8398 1.4219-3.7891 3.3164l-4.2617 9.4727c-0.47266 0.94531-1.4219 0.94531-1.4219 0.94531-0.47266 0-0.94531 0-1.4219-0.94531l-4.2578-9.4688c-0.94531-1.8945-2.8398-3.3164-5.2109-3.3164h-0.47266l-13.258 1.4219c-0.47266 0-0.94531-0.47266-1.4219-0.94531l-5.2109-8.0508c-0.47266-0.47266-0.47266-0.94531 0-1.4219l5.2109-12.785c0.47266-0.94531 0.47266-1.4219 0.47266-2.3672l-0.47266-10.418c0-3.7891-4.2617-6.6289-8.0508-4.7344l-4.7383 1.418c-1.4219 0.47266-2.8398 2.3672-3.3164 3.7891l-2.8398 12.312c-0.47266 0.94531 0 1.8945 0 3.3164l5.6836 16.574 3.3164 7.5781v1.4219c0 0.47266-0.47266 0.94531-0.94531 0.94531l-8.9961 3.7891h-0.94531l-3.7891-0.94531c-2.3672-0.47266-4.7344 0.47266-6.1562 2.3672l-14.207 22.73c0 0.47266-0.47266 0.47266-0.94531 0.47266l-10.418 3.7891c-0.94531 0.47266-1.8945 0.94531-2.3672 1.8945l-11.84 15.156c-0.47266 0.47266-0.94531 0.47266-1.4219 0.47266l-3.3164-0.47266c-2.8398-0.47266-6.1562 1.4219-6.6289 4.7344 0 0.47266-0.94531 1.4219-1.4219 1.4219l-4.7344 0.47266c-2.3672 0.47266-4.7344 1.8945-5.2109 4.7344-0.47266 2.3672 0.47266 4.7344 2.8398 6.1562l4.2617 2.3672c0.47266 0 0.47266 0.47266 0.47266 0.47266l10.891 21.785v1.4219l-6.1562 15.156c-0.47266 0.47266-0.94531 0.94531-1.4219 0.94531h-44.043c-3.3164 0-5.6836 2.3672-5.6836 5.6836v47.359c0 3.3164 2.3672 5.6836 5.6836 5.6836l9.4688-0.003907c0.47266 0 0.94531 0.47266 1.4219 0.94531l0.94531 1.8945c0.94531 1.8945 2.8398 2.8398 4.7344 2.8398 0.94531 0 1.8945 0 2.8398-0.47266l4.7344-2.3672h0.94531l13.734-0.47266c1.4219 0 3.3164-0.94531 4.2617-1.8945l10.418-12.785c0.47266-0.47266 0.94531-1.4219 0.94531-1.8945l5.2109-17.996c0-0.47266 0.47266-0.94531 0.94531-0.94531l13.262-7.1055c1.8945-0.94531 2.8398-2.3672 2.8398-4.2617l0.94531-8.0508c0-0.94531 0.47266-1.4219 1.4219-1.4219l17.523-3.3164c1.4219-0.47266 2.8398-0.94531 3.7891-2.3672l3.3164-4.2617c0.47266-0.47266 0.94531-0.47266 1.8945-0.47266l2.3672 0.47266c1.4219 0.47266 3.3164 0 4.7344-0.94531l3.3164-2.3672c0.47266-0.47266 0.94531-0.47266 1.4219 0l8.5234 3.3164c0.47266 0 0.94531 0.47266 0.94531 1.4219l1.8945 10.418c0 1.4219 0.94531 2.3672 1.8945 3.3164l10.418 8.9961 0.47266 0.47266 19.418 12.312c0.47266 0 0.47266 0.47266 0.94531 0.94531l1.8945 8.0508 0.015625 6.6328c0 0.94531 0.47266 1.8945 1.4219 1.8945 0.94531 0.47266 1.8945 0 2.3672-0.94531l5.2109-8.0508c0.94531-1.4219 0.94531-3.3164 0.47266-4.7344l-1.8945-6.1562h0.47266l5.2109 2.8398c0.47266 0 0.47266 0.47266 0.94531 0.47266 0.94531 0 1.8945-0.94531 1.8945-1.8945 0-0.47266-0.47266-0.94531-0.47266-1.4219l-5.2109-8.5234c-0.47266-0.94531-1.4219-1.8945-2.3672-2.3672l-9.9453-5.2109-8.0508-6.1562-0.47266-0.47266-12.312-21.312c-0.47266-0.47266-0.47266-1.4219 0-1.8945l5.6836-8.0508c0.47266-0.94531 1.8945-0.94531 2.8398 0l11.84 16.574 3.3164 5.2109c0.94531 1.4219 2.3672 2.3672 3.7891 2.3672l8.0508 0.94531c0.47266 0 0.47266 0 0.94531 0.47266l10.891 8.9961c0.47266 0.47266 0.47266 0.94531 0.47266 1.4219v14.68c0 0.94531 0.47266 2.3672 0.94531 3.3164l9.4727 14.68c0.47266 0.94531 1.4219 1.8945 2.8398 2.3672l3.7891 1.4219c-0.47266 0.47266-0.94531 0.94531-1.4219 1.8945-0.94531 1.8945-0.47266 3.7891 0.47266 5.2109l0.94531 1.8945c0.94531 1.8945 2.8398 2.8398 5.2109 2.8398h1.4219c1.8945 0 3.3164-0.94531 4.2617-2.3672 0.94531-1.4219 1.4219-3.3164 0.47266-5.2109l-4.2578-12.309v-0.47266l0.47266-12.312c0-0.47266 0.47266-1.4219 0.94531-1.4219l12.312-5.2109h1.4219l1.4219 0.94531c2.8398 1.4219 6.6289 0 8.0508-2.8398l1.4219-3.7891c0-0.47266 0.94531-0.94531 1.4219-0.94531l4.2617-0.47266c1.8945 0 3.3164-1.4219 4.2617-2.8398 0.94531-1.4219 0.94531-3.3164 0.47266-5.2109v-0.47266-1.4219l14.207-30.781c0-0.47266 0.47266-0.94531 0.94531-0.94531l13.734-2.8398h0.47266l5.6836 2.3672c0.47266 0 0.94531 0.47266 0.94531 0.94531s0 0.94531-0.47266 1.4219c-1.4219 1.8945-1.4219 3.7891-0.47266 5.6836l1.8945 3.7891c1.4219 2.8398 5.2109 4.2617 8.0508 2.3672l5.6836-3.3164c1.4219-0.94531 2.3672-2.3672 2.8398-3.7891 0.47266-1.4219 0-3.3164-1.4219-4.7344l-0.94531-1.4219c-0.47266-0.47266-0.94531-0.94531-1.8945-1.4219l28.887-19.891c1.4219-0.94531 2.3672-2.8398 2.3672-4.7344v-5.6836c0.007813-1.4219-1.4141-3.793-3.7812-4.2656z"/>
  <path d="m384.53 571.12-12.312 4.7344c-0.47266 0.47266-0.94531 0.94531-1.4219 1.4219 0 0.47266 0 1.4219 0.47266 1.8945l4.7344 5.2109c0.47266 0.47266 0.94531 0.47266 1.4219 0.47266h7.1055c0.94531 0 1.8945-0.94531 1.8945-1.8945l0.94531-9.9453c0-0.47266-0.47266-1.4219-0.94531-1.8945h-1.8945z"/>
  <path d="m344.75 547.91 1.4219-0.94531c0.47266-0.47266 0.47266-0.94531 0.47266-1.4219v-6.1562c0-0.94531-0.47266-1.4219-1.4219-1.8945-0.94531-0.47266-1.8945 0-2.3672 0.47266l-2.8438 3.7891c-0.47266 0.47266-0.47266 1.4219-0.47266 2.3672l0.94531 2.3672-5.2109 4.2617c-0.47266 0.47266-0.94531 1.4219-0.47266 2.3672l2.8398 8.9961c0 0.47266 0.47266 0.94531 1.4219 1.4219h0.47266c0.47266 0 0.94531 0 1.4219-0.47266l6.6289-5.2109c0.94531-0.47266 0.94531-1.4219 0.47266-2.3672z"/>
  <path d="m247.66 393.05-0.47266 9.9453c0 0.94531 0.47266 1.8945 0.94531 2.3672 0.47266 0.47266 1.4219 0.94531 2.3672 0.94531h0.94531l5.6836-1.8945 1.8945 18.941-10.891 12.789c-0.94531 0.94531-0.94531 2.3672-0.47266 3.3164 0.47266 0.94531 1.4219 1.8945 2.3672 2.3672l9.4727 1.4219-4.7344 4.2617-11.367 5.2109c-0.94531 0.47266-1.4219 0.94531-0.94531 1.8945 0.47266 0.94531 0.47266 1.4219 1.4219 1.8945l8.5234 2.3672h0.94531c0.94531 0 1.8945-0.47266 2.3672-0.94531l5.2109-5.6836 18.469-1.4219c0.94531 0 1.8945-0.47266 2.3672-1.4219l8.0508-12.312c0.47266-0.94531 0.47266-1.8945 0.47266-2.3672l-0.94531-5.2109c-0.47266-1.8945-2.8398-3.3164-4.7344-2.3672l-2.8398 1.4219-1.4219-3.3164-1.4219-15.156c0-0.47266-0.47266-0.94531-0.47266-1.4219l-11.367-15.625c-0.47266-0.47266-0.47266-0.94531-0.94531-0.94531-3.7891-1.8945-6.1562-3.3164-7.5781-3.7891 0.94531-1.4219 2.8398-3.7891 5.6836-8.0508 0.47266-0.47266 0.47266-0.94531 0.47266-1.4219l0.94531-5.6836c0-1.4219-0.94531-3.3164-2.3672-3.7891l-8.9961-2.3672h-0.94531-0.47266l5.2109-7.5781c0.47266-0.47266 0.47266-1.4219 0-1.8945-0.47266-0.47266-0.94531-0.94531-1.8945-0.94531h-7.1055c-0.94531 0-2.3672 0.47266-2.8398 1.4219l-8.5234 14.207c-0.47266 0.94531-0.47266 2.3672 0 3.3164z"/>
  <path d="m238.19 429.52-0.94531-8.9961 3.7891-8.0508c0.47266-0.94531 0.47266-1.8945 0-2.3672l-2.8398-8.5234c-0.47266-1.4219-1.8945-2.3672-3.3164-2.3672h-0.94531l-12.785 3.3164c-0.94531 0-1.4219 0.47266-1.8945 1.4219l-5.2109 7.5781c-0.47266 0.47266-0.47266 1.4219-0.47266 1.8945v9.4727c0 0.94531 0.94531 1.8945 1.8945 1.8945h0.94531c-1.4219 1.4102-1.4219 1.8867-1.4219 2.3594 0 0.94531 0.47266 1.8945 1.8945 2.8398l-5.6836 6.1562c-0.94531 1.4219-0.94531 3.3164 0 4.7344l2.3672 2.3672c0.47266 0.47266 1.4219 0.94531 2.3672 0.94531 0.47266 0 1.4219 0 1.8945-0.47266l18.469-10.891c1.4219-0.46875 1.8945-1.8906 1.8945-3.3125z"/>
  <path d="m315.86 321.54c0.47266 1.4219 1.8945 2.3672 3.3164 2.3672h0.94531l8.9961-2.8398-9.4727 35.52c-0.47266 0.94531 0 1.8945 0.47266 2.8398 0.47266 0.94531 1.4219 1.4219 2.8398 1.4219h18.469c1.4219 0 2.8398-0.94531 3.3164-1.8945l5.6836-14.207 20.836 50.672c0.47266 1.4219 1.8945 1.8945 2.8398 1.8945 0.47266 0 0.94531 0 1.4219-0.47266l13.734-7.1055c0.94531-0.47266 1.8945-1.4219 1.8945-2.8398l3.3164-37.414 10.418-2.8398c1.4219-0.47266 2.3672-1.4219 2.3672-2.8398l0.47266-5.2109c0-0.94531 0-1.8945-0.94531-2.3672-0.47266-0.47266-1.4219-0.94531-2.8398-0.94531l-10.418 1.4219 7.5781-35.992 22.258-17.051c0.47266-0.47266 0.94531-1.4219 1.4219-2.3672l1.8945-15.156 7.1055-15.156 12.312-2.3672 7.5781 16.574-12.785 15.629-14.68 17.051c-0.47266 0.47266-0.94531 1.4219-0.94531 2.3672l1.8945 25.574c0 0.94531 0.47266 1.8945 1.4219 2.3672l10.418 8.5234c0.47266 0.47266 1.4219 0.94531 1.8945 0.94531h0.94531l11.367-4.2617 15.156-0.47266c0.94531 0 1.8945-0.47266 2.3672-1.4219l24.152-31.73c0.94531-1.4219 0.94531-2.8398 0-4.2617l-5.2148-8.0508-3.7891-20.363 3.7891-10.418c0.47266-0.94531 0.47266-1.4219 0-2.3672l-6.6289-17.996 3.3164-20.363c0-0.94531 0-1.8945-0.94531-2.8398l-8.0547-7.582 2.3672-26.52 8.5234-8.5234c0.94922-1.4219 1.4219-2.8438 0.94922-3.7891l-1.4219-3.7891c-0.47266-1.4219-1.8945-2.3672-3.3164-2.3672l-32.203 0.94531c-0.47266 0-0.94531 0-1.4219 0.47266l-26.047 13.734-22.258 13.734c-0.47266 0.47266-0.94531 0.47266-0.94531 0.94531l-21.785 31.258s-0.47266 0.47266-0.47266 0.47266l-21.785 45.465-6.1562 4.2617c-1.4219 0.94531-1.8945 2.3672-1.4219 4.2617l1.4219 4.2617c0.47266 0.94531 0.94531 1.4219 1.8945 1.8945l1.8945 0.94531-20.363 7.582c-0.47266 0-0.94531 0.47266-1.4219 0.94531l-18.469 20.363c-0.47266 0.94922-0.94922 2.3711-0.47266 3.3164z"/>
  <path d="m213.09 190.83c0.47266 0 0.94531 0 1.4219-0.47266l10.891-6.1562c0.94531-0.47266 1.4219-1.4219 1.4219-2.3672 0-0.94531 0-1.8945-0.47266-2.8398l-5.2109-6.6289c-0.47266-0.003907-1.4219-0.48047-2.3672-0.48047h-0.94531l-3.3164 0.94531c-3.3164-6.1562-4.2617-6.6289-5.6836-6.6289-0.94531 0-1.8945 0-8.9961 7.1055-0.47266 0.47266-0.94531 0.94531-0.94531 1.8945l-1.4219 7.5781c-0.47266 1.4219 0.47266 3.3164 2.3672 3.7891l12.312 4.2617h0.94531z"/>
 </g>
</svg>
