<?xml version="1.0" encoding="UTF-8"?>
<svg width="752pt" height="752pt" version="1.1" viewBox="0 0 752 752" xmlns="http://www.w3.org/2000/svg">
 <g>
  <path d="m480.45 395.93c-0.14844-0.30859-0.28906-0.60938-0.4375-0.91797l-22.047-35.969c-2.0938-3.418-7.2773-2.8359-8.5117 0.98047-0.78906 2.4609-2.3359 2.8555-3.2305 2.8555-1.0117 0-2.3711-0.53906-2.8789-2.0664l-1.7227-5.168c-0.45313-1.3555-1.4922-2.4336-2.832-2.9375l-14.316-5.3672c-3.0625-1.1445-6.5312-0.42188-9.5625 2.3477-0.86328 0.78516-1.2969 1.957-1.3555 3.125l-1.2227 26.629c-0.050781 1.1406-0.51562 2.2305-1.3086 3.0547l-5.4648 5.7109c-1.5078 1.5781-2.3047 3.6484-2.2578 5.8281l0.11719 11.879-3.582-0.066407-13.379-18.352c-0.17969-0.20703-0.35938-0.41016-0.53906-0.62109l-18.469-17.812c-1.625-1.5664-1.918-4.0625-0.69922-5.9609l12.836-20.031c0.40625-0.42969 0.80469-0.85156 1.2109-1.2773l33.48-24.246c1.1094-0.80078 1.8125-2.0469 1.9375-3.4062l1.1328-12.449c0.16016-1.793 1.332-3.3438 3.0156-3.9922l1.6133-0.62109c1.9258-0.74219 4.1094-0.15234 5.3984 1.457l7.2695 9.082c1.043 1.3008 1.3203 3.0586 0.73828 4.6211l-3.1875 8.4961c-0.62109 1.6484-2.0977 2.8164-3.8438 3.0352l-6.5742 0.82031c-2.4766 0.30859-4.2852 2.4844-4.1406 4.9766l0.19922 3.3711c0.097657 1.6641 1.0625 3.1523 2.5391 3.9219l25.453 13.277c1.7656 0.91797 3.918 0.64062 5.3828-0.69922l4.6367-4.2383c2.8633-2.6133 3.4844-6.918 1.4766-10.238l-4.4375-7.6094 0.91406-0.46875 3.2383 3.832c1.8672 2.207 5.2578 2.2383 7.1719 0.070312l5.7305-6.5078c1.6016-1.8203 1.5742-4.5547-0.070312-6.3359l-10.406-11.293c-1.0117-1.0977-1.4492-2.6133-1.168-4.082l1.5898-8.4727c0.25-1.3516-0.089843-2.7422-0.94531-3.8164l-19.223-24.219c-0.61719-0.77734-1.457-1.3359-2.4062-1.6094l-20.289-5.7969c-2.1016-0.60156-4.3477 0.31641-5.4219 2.2227l-14 24.77c-1.1289 1.9883-0.66797 4.5039 1.0898 5.9688l4.1094 3.4297c0.62109 0.51562 1 1.2461 1.0742 2.0469 0.070312 0.80469-0.17578 1.5859-0.71875 2.2344-1.5117 1.8125-5.0586 1.7852-5.9023-1.293l-4.6523-17.059c-0.41797-1.5234-0.042968-3.1523 0.98828-4.3477l9.0742-10.473c1.4805-1.7109 2-4.0352 1.375-6.2148-0.625-2.1797-2.2891-3.8789-4.457-4.543l-2.4375-0.75c-2.1406-0.66016-4.4453 0.27344-5.5312 2.2344l-24.539 44.312c-0.76172 1.375-2.1562 2.2812-3.7227 2.4258l-6.9414 0.62109c-1.0273 0-1.9883-0.45313-2.6367-1.25l-3.7031-4.5195c-1.8008-2.1992-5.1211-2.3242-7.0859-0.26953l-5 5.2266c-0.76172 0.80078-1.8945 1.1953-3.0195 1.0039l-8.0508-1.3398c-0.94141-0.15625-1.625-0.96094-1.625-1.918v-1.8281c0-2.1992-1.0781-4.2461-2.8828-5.5l-26.219-18.094c-1.0781-0.74219-2.4219-1.0078-3.6992-0.73047l-27.719 6.043c-1.2969 0.28516-2.6523 0.007813-3.7383-0.75781l-37.492-26.426c-2.3594-1.6562-5.5-1.9375-8.1133-0.73828l-36.289 16.773c-3.2578 1.5078-5.1289 4.9102-4.6562 8.4727l0.58594 5.5117c0.26172 2.4492-1.3984 4.7109-3.8281 5.125-0.59766 0.097656-1.1758 0.30859-1.6953 0.62891l-10.676 6.5977c-1.6523 1.0234-2.5156 2.9492-2.1719 4.8633l0.73438 4.1094c0.77734 4.3672 4.9453 7.4023 9.4727 6.582l4.9492-0.69531-0.125 4.125-10.125 2.6133c-0.78906 0.20313-1.5156 0.60938-2.1094 1.1797l-10.215 9.8633c-1.3828 1.3359-1.8242 3.375-1.1094 5.168l5.5234 13.812c0.11719 0.29688 0.16406 0.62109 0.12891 0.9375l-0.4375 3.9609c-0.28125 2.5352 1.5586 4.8789 4.082 5.2148l4.9258 0.65234-14.406 13.305c-1.3203 1.2188-1.7422 2.9922-1.0977 4.6406 0.93359 2.3867 3.9492 3.4727 6.1797 2.125l26.047-15.723c1.4648-0.88672 2.3672-2.4922 2.3672-4.1953l0.0625-1.957 3.2539-2.7383c0.0625 0.73047 0.32031 1.4336 0.77344 2.0508 0.81641 1.1172 2.4023 1.8203 3.75 1.6328l12.273-1.4648c2.4688-0.29297 4.3242-2.3828 4.3242-4.8672l0.27344-1.4922 20.91 17.105c0.79688 0.64844 1.3555 1.5391 1.6016 2.5391l4.4102 17.969c0.40234 1.6367 1.6445 2.9414 3.2617 3.4141l3.2812 0.96484c0.64844 0.19531 1.1602 0.71484 1.332 1.375l3.8555 14.766c0.16016 0.625 0.14844 1.2773-0.046875 1.8906l-1.5352 4.8398c-0.51172 1.6211-0.11719 3.3867 1.0273 4.6367l6.2695 6.8164c0.92187 1.0039 1.3672 2.3555 1.2227 3.707l-4.4883 42.258c-0.082031 0.76172 0.023438 1.5352 0.30859 2.2461l9.6055 24.211c0.46094 1.1641 1.3633 2.0977 2.5156 2.5938l5.4883 2.3867c1.2656 0.55078 2.2266 1.625 2.6328 2.9414l6.2188 20.031c0.19922 0.63281 0.52734 1.2266 0.96484 1.7227l9.6172 10.934c2.0312 2.3008 5.9062 2.0508 7.6719-0.375 0.91406-1.25 1.1641-2.8359 0.68359-4.3516l-2.6055-9.2617 16.82 22.172c0.42578 0.5625 0.64453 1.2578 0.60937 1.9609l-0.23828 5.1875c-0.097656 2.1562 1.2734 4.1016 3.3359 4.7422l30.492 9.4141c0.97656 0.30469 2.0273 0.28125 2.9883-0.066407l3.5078-1.2539c0.42578-0.15234 0.89062-0.14844 1.3086 0l20.977 7.4688c0.62891 0.41016 1.2305 0.80469 1.8555 1.2109l10.199 10.82c1.2578 1.332 3.0312 2.0938 4.8594 2.0938 0.91016 0 1.7891-0.18359 2.6289-0.53906l3.7109-1.5898c2.3242-0.99609 3.457-3.6367 2.5703-6.0039l-6.3789-17.121c-0.69141-1.8516-2.457-3.082-4.4375-3.082h-8.1328c-1.0508 0-2.0273-0.47266-2.6758-1.2969-0.64844-0.82422-0.88672-1.8867-0.63281-2.9062l1.9688-8.1875c0.48438-2.0039 0.03125-4.0742-1.2422-5.6875-1.5781-2.0039-4.168-2.9453-6.6719-2.4023l-1.8867 0.41016c-0.78516 0.17188-1.5234 0.47266-2.2109 0.91406l-11.871 7.668c-1.7109 1.1133-4.5898 0.61719-5.1797-2.1484l-4.9531-23.035c-0.53516-2.4844 0.98828-4.9492 3.4531-5.582l30.656-7.8789c2.1445-0.55469 4.3906 0.46094 5.3984 2.4336l5.7109 11.18c1.4648 2.8594 5.2891 3.4648 7.5625 1.1992l3.1719-3.168c1.2773-1.2734 1.7188-3.168 1.1367-4.8789l-4.5234-13.289c-0.61719-1.8047-0.085938-3.8047 1.3398-5.0664l13.734-12.176c0.84766-0.75 1.3984-1.7773 1.5469-2.8984l1.168-8.4883c0.14844-1.0625 0.64844-2.043 1.4258-2.7812l15.102-14.402c0.80078-0.76172 1.3125-1.7852 1.4336-2.8828l0.51172-4.4453c0.24219-2.0898 1.832-3.7695 3.9062-4.125l10.922-1.8672c0.69922-0.11719 1.3672-0.39844 1.9453-0.80859l11.422-8.1211c1.7695-1.2578 2.4922-3.4141 1.8281-5.4844-0.66406-2.0742-2.4922-3.4102-4.668-3.4102l-2.668-0.10938-1.0234-2.8164c-0.55859-1.5312 0.050781-3.2539 1.4492-4.0859l8.457-5.0703c0.95312-0.57812 2.0977-0.22656 2.6602 0.64844 0.25 0.38672 0.47266 1.0234 0.097657 1.8359-0.94531 2.0742-0.77734 4.4609 0.46094 6.3828 1.2344 1.918 3.3359 3.0625 5.6172 3.0625h8.793c2.6328 0 5.1133-1.2852 6.6406-3.4297 1.5234-2.1445 1.918-4.9102 1.0547-7.3984z"/>
  <path d="m582.42 290.33 5.1055-29.086c0.097656-0.5625 0.09375-1.1367-0.007813-1.6953l-3.5898-19.023c-0.17578-0.92969-0.066406-1.8906 0.30859-2.7578l15.906-36.789c0.97656-2.2539 0.94531-4.832-0.082031-7.0625s-2.9609-3.9297-5.3086-4.6562l-4.8398-1.5c-0.28516-0.089844-0.57422-0.14844-0.86719-0.17969l-16.504-1.8789c3.0195-0.82031 5.3047-3.1133 6.1094-6.1328 0.80469-3.0195-0.03125-6.1484-2.2461-8.3594l-3.5-3.5c-0.80859-0.80859-1.8867-1.2969-3.0273-1.3789l-20.902-1.4141c-0.050781 0-0.53516-0.019531-0.59375-0.019531-1.8086 0-3.543 0.55469-5.0156 1.6016l-12.441 8.8359c-1.4766 1.0508-2.2266 2.8516-1.9258 4.6406l0.79688 4.7891c0.19531 1.1602-0.11719 2.293-0.875 3.1875-0.87109 1.0234-2.1797 1.5391-3.5273 1.3594l-26.637-3.6016c-1.4648-0.19922-2.9375 0.29687-3.9844 1.3438l-14.676 14.676c-1 1-1.5 2.3945-1.3633 3.8047l0.49609 5.1523c0.23047 2.4102-1.3906 4.6133-3.7695 5.0977l-13.652 2.7852c-2.3633 0.48438-3.9883 2.668-3.7695 5.0664l1.4062 15.5c0.039063 0.40234 0.125 0.79688 0.26172 1.1758l1.9688 5.4531c1.2305 3.4297 4.5078 5.7305 8.1562 5.7305 0.050781 0 0.49219-0.015625 0.53906-0.015625l10.504-0.64844c1.6289 0 3.0625 0.98047 3.6562 2.4922l6.582 16.762c0.30859 0.77734 0.40234 1.625 0.27344 2.4531l-3.4492 22.426c-0.375 2.4297 1.1758 4.7422 3.5625 5.3242l2.6133 0.63281c0.59375 0.14062 1.0742 0.53906 1.3203 1.0977 0.24609 0.55469 0.22266 1.1836-0.066407 1.7148l-7 12.875c-0.64062 1.1797-0.75391 2.5703-0.30859 3.8359l11.555 32.805c0.6875 1.9609 2.5469 3.2773 4.6211 3.2773 0.14844 0 0.76172-0.058594 0.90625-0.085938l2.9062-0.44141 1.6289 2.4453c0.88281 1.3164 2.3594 2.1094 3.9414 2.1094h3.8203c2.1602 0 4.043-1.457 4.5859-3.5469l7.4531-28.762c0.27344-1.0625 0.91016-1.9922 1.8008-2.6445l19.273-14.02c0.47266-0.33984 1.0039-0.59766 1.5625-0.74219l16.344-4.3555c0.93359-0.25 1.7656-0.77734 2.3906-1.5117l10.508-12.395c0.55469-0.64844 0.91797-1.418 1.0664-2.2461z"/>
  <path d="m602.4 316.22c-1.4805-2.5352-4.6172-3.8281-7.457-3.0938l-13.254 3.4336-0.77734-0.30469c-1.9375-0.76562-4.1953-0.17969-5.5352 1.3984-0.92969 1.0938-1.332 2.5391-1.0938 3.9609l1.5312 9.3008c0.53516 3.2383 3.3047 5.5938 6.5859 5.5938h7.1602c1.4141 0 2.7734-0.44141 3.9297-1.2773l9.1602-6.6641c2.7852-2.0273 3.5742-5.793 1.8438-8.7656z"/>
  <path d="m396.75 229.03c-0.86328 1.6094-0.76562 3.4844 0.25 5.0195l0.94531 1.4688v11.086c0 2.3125 1.668 4.2852 3.9453 4.668l15.527 2.625c0.13281 0.019531 0.73047 0.070312 0.86328 0.070312 2.1367 0 4.0078-1.3984 4.6445-3.4766 0.64453-2.0938-0.11328-4.2422-1.9258-5.4805l-3.5234-2.7422 21.602-5.0117c1.1328-0.26562 2.1328-0.93359 2.8008-1.8867l16.395-23.258c0.32031-0.33594 0.63281-0.66797 0.95703-1.0039l29.973-23.406c3.0273-2.3633 4.4648-6.1758 3.7617-9.9492-0.70703-3.7734-3.4297-6.8047-7.1055-7.9102l-22.609-6.8047c-0.95703-0.28906-1.9766-0.26562-2.918 0.0625l-16.926 5.8789c-3.3242 1.1562-5.793 3.8867-6.6016 7.3125s0.17578 6.9727 2.6328 9.4922l6.3477 6.6172-0.59766 1.9883-8.8789-2.0312c-1.293-0.29688-2.4336-1.0508-3.2148-2.1211l-0.75781-1.043c-3.207-4.4102-9.3047-5.7227-14.836-2.1797-0.65234 0.41797-1.1797 1.043-1.5547 1.7227l-6 10.93c-0.38281 0.69531-0.58203 1.4805-0.58203 2.2773v12.457c0 1.4648 0.73828 2.7734 1.8477 3.7266 1.582 1.3516 2.2539 3.3672 1.8438 5.332-0.35156 1.6797-1.4414 3.0742-3.3945 4.0195-1.3359 0.64453-2.9258 0.73047-4.3242 0.19922l-2.5234-0.94531c-2.3086-0.85156-4.918 0.14453-6.0625 2.2969z"/>
  <path d="m310.84 261.24c1.6953 1.4805 4.3906 1.5781 6.1914 0.21484l1.4883-0.73047-0.41016 0.73047c-0.77734 1.3789-0.83984 3.0508-0.17578 4.4805 0.66797 1.4297 1.9883 2.457 3.543 2.7461l3.3242 0.91797-5.0625 3.2344c-1.5664 1-2.4258 2.7656-2.2383 4.6172 0.18359 1.8477 1.375 3.4141 3.1016 4.082l1.168 0.57422v3.75c0 2.7031 2.1992 4.9023 4.9023 4.9023 0.039063 0 0.20312 0 0.24219-0.003907l29.594-1.4453c1.4453-0.070312 2.7812-0.80078 3.6211-1.9766l4.5664-6.3828c1.0781-1.5117 1.1797-3.5156 0.25-5.1211l-3.5664-6.1836c-0.75-1.2969-0.83984-2.8711-0.24609-4.2422l5.6328-13.031c0.82812-1.9141 0.30469-4.1484-1.2891-5.4922l-2.5469-2.1562c-1.6523-1.4023-4.0508-1.4961-5.8125-0.23828l-4.2617 3.0469c-2.0938 1.4961-4.9961 1.0469-6.5391-1.0117l-7.5625-10.082c-0.64062-0.84766-1.5391-1.457-2.5664-1.7344l-15.93-4.2539c-1.9258-0.51562-3.9727 0.23828-5.1094 1.875l-11.699 16.859c-1.375 1.9805-1.043 4.6797 0.77344 6.2656zm15.832 27.129v0.023437z"/>
  <path d="m346.64 217.09-5.5898 5.0312c-2.6289 2.3672-2.957 6.3789-0.75 9.1367l2.5859 3.2305c1.2734 1.5977 3.1719 2.5117 5.2188 2.5117 0.046875 0 0.33594-0.007812 0.38281-0.007812l16.816-0.97266c2.0781-0.11719 4.0156-1.2266 5.168-2.9609l3.4258-5.1289c1.4062-2.1133 1.4883-4.8984 0.19922-7.0859l-1.1016-1.8789c-2.4023-4.0781-8.9805-4.1328-11.445-0.097656l-0.56641 0.91797c-0.51172 0.83984-1.332 0.92969-1.6562 0.92969-0.64062 0-1.2188-0.29688-1.582-0.82422l-1.1758-1.668c-2.2031-3.1328-7.0898-3.6875-9.9297-1.1328zm1.4688 17.484c0.003907 0 0.003907 0 0 0v0.050781z"/>
  <path d="m329.37 218.14 2.5469 1.9492c0.85156 0.64844 1.9102 1.0039 2.9805 1.0039 0.90625 0 1.7891-0.24609 2.5625-0.71875l16.539-10.125c2.1406-1.3008 2.9492-4 1.8789-6.2695l-1.1094-2.3633c-1.1797-2.4961-4.5312-3.5469-6.9141-2.1406l-17.977 10.539c-1.4102 0.82812-2.3125 2.2969-2.4141 3.9297-0.10938 1.6367 0.60547 3.2031 1.9062 4.1953z"/>
  <path d="m392 217.92c1.2344 1.1289 2.832 1.7461 4.4961 1.7461 2.5938 0 4.9062-1.4531 6.0273-3.7891l1.4883-3.0938c0.875-1.832 0.875-3.9414 0-5.7773l-2.3906-4.9805c-1.3867-2.8984-4.8789-4.4414-7.9648-3.5l-2.7695 0.84375c-2.832 0.85547-4.7344 3.4297-4.7344 6.3867v3.8633c0 1.875 0.78906 3.6719 2.1719 4.9336z"/>
  <path d="m370.92 248.43-4.2539 5.8477c-1.5742 2.1602-1.7031 5.0352-0.34766 7.332l2.3125 3.8984c1.2109 2.0508 3.3633 3.2734 5.75 3.2734 1.7188 0 3.3594-0.66016 4.6016-1.8477l3.8438-3.6719c1.1992-1.1445 1.9258-2.6836 2.0469-4.3438l0.53516-7.3438c0.13672-1.875-0.48828-3.6562-1.7539-5.0234-2.0078-2.1641-5.3438-2.7656-7.9844-1.3906l-2.4453 1.2695c-0.90234 0.48438-1.7031 1.1758-2.3047 2z"/>
  <path d="m414.9 538.47c-0.42188-0.41797-0.91406-0.73438-1.4688-0.94531l-20.652-7.9688c-2.1094-0.82031-4.5312-0.49219-6.3398 0.83984l-8.6914 6.3516c-0.55859 0.40625-0.91016 1.043-0.96484 1.7305-0.058594 0.6875 0.19922 1.3672 0.6875 1.8555l1.2227 1.2227c0.64453 0.64062 1.5977 0.86328 2.457 0.5625l6.8711-2.4023c0.375-0.13281 0.78125-0.15234 1.1641-0.039063l14.77 4.125c0.39453 1.6016 1.8242 2.7383 3.5 2.7383 0.13672 0 0.48438-0.027343 0.61719-0.050781l4.5664-0.78906c1.5664-0.27344 2.8398-1.3867 3.3242-2.9062 0.46875-1.5391 0.074218-3.1836-1.0625-4.3242z"/>
  <path d="m435.54 539.97c-0.80078-0.80469-1.875-1.2461-3.0078-1.2461h-9.9492c-1.7812 0-3.4258 0.96484-4.2852 2.5195l-1.5391 2.7656c-0.78906 1.4219-0.82422 3.1367-0.09375 4.5859 0.73047 1.4492 2.1328 2.4492 3.7461 2.6562l4.3281 0.56641c0.28516 0.039063 0.57422 0.050782 0.85547 0.050782 1.0703 0 2.1367-0.26172 3.082-0.75391l6.6992-3.4844c1.1992-0.625 2.0352-1.7891 2.2383-3.125 0.20312-1.332-0.24219-2.6992-1.1992-3.6562z"/>
 </g>
</svg>
