<?xml version="1.0" encoding="UTF-8"?>
<svg width="752pt" height="752pt" version="1.1" viewBox="0 0 752 752" xmlns="http://www.w3.org/2000/svg">
 <g>
  <path d="m433.71 349.32c-0.13672-0.73438-0.44922-1.4258-0.90625-2.0156l-27.516-35.609c-0.39844-0.51562-0.89453-0.94141-1.4648-1.2539l-14.465-7.9531c-1.0469-0.57422-1.832-1.5195-2.2109-2.6523l-10.125-30.379c-0.71875-2.1641-2.4492-3.8398-4.6367-4.5l-1.3398-0.40234c-2.2734-0.68359-4.0508-2.4727-4.7188-4.75l-3.1953-10.957c-0.90625-3.1016-4.2383-4.793-7.2734-3.6875l-0.039063 0.015626c-2.207 0.80469-3.6797 2.9023-3.6797 5.2539v34.566c0 1.3906-0.61719 2.7148-1.6758 3.6133l-6.7383 5.7031c-1.5547 1.3125-3.7695 1.4922-5.5117 0.4375l-25.336-15.336c-2.1992-1.332-2.9375-4.1719-1.6562-6.4023l5.1211-8.957c1.4492-2.5352 0.28516-5.7578-2.4492-6.7812l-7.2461-2.7188c-0.72266-0.26953-1.5078-0.35938-2.2734-0.26172l-17.844 2.3281c-0.30859 0.070312-0.61719 0.14844-0.92969 0.21875l-10.801 3.7109c-1.4453 0.49609-2.5625 1.6641-2.9961 3.125l-3.9609 13.289c-0.71484 2.4102-3.1914 3.8359-5.6367 3.2539l-11.402-2.7148c-1.2969-0.30859-2.6602-0.058593-3.7656 0.69531l-16.43 11.203c-0.29297 0.25391-0.57812 0.51172-0.87109 0.76562l-12.629 14.207c-0.35547 0.40234-0.64453 0.86328-0.84766 1.3594l-8.2812 20.324c-0.46875 1.1562-1.375 2.0742-2.5195 2.5664l-48.73 20.887c-1.7422 0.75-2.8711 2.457-2.8711 4.3516v24.461c0 0.80469-0.20312 1.5977-0.59766 2.3008l-2.7031 4.8672c-0.60156 1.0781-0.75391 2.3555-0.42969 3.5469l13.969 51.23c0.49219 1.8125 0.24219 3.75-0.70703 5.375l-1.9453 3.3359c-1.3633 2.3398-0.49219 5.3359 1.9023 6.5859l13.938 7.2461c1.7148 0.89062 3.7969 0.65234 5.2656-0.60547l8.3828-7.1836c0.6875-0.59375 1.5352-0.97266 2.4297-1.0938l27.145-3.7695c1.2695-0.17578 2.4102-0.85547 3.168-1.8906l7.3438-10.02c0.51562-0.70703 1.2188-1.25 2.0273-1.582l34.512-14.117c1-0.40625 2.1016-0.46484 3.1406-0.15625l19.531 5.7891c1.1289 0.33203 2.0898 1.0742 2.6992 2.0781l8.2266 13.512c1.4453 2.3711 4.6172 2.9961 6.8516 1.3516l6.3086-4.6523c2.6836-1.9805 6.5195-0.63281 7.3828 2.5859l0.875 3.2773c0.91406 3.4648-0.9375 7.0547-4.2812 8.3359 0 0-7.5234 1.3242-7.1758 4.5352 0.35156 3.2109 14.113 2.1719 14.113 2.1719 1.9219 0.22266 3.5195 1.5898 4.0273 3.457l3.4805 12.758c0.46875 1.7148 1.8555 3.0195 3.5938 3.3867l28.402 5.9766c0.64062 0.13281 1.2461 0.40234 1.7773 0.78125l8.2695 5.9062c1.6641 1.1875 3.9023 1.1758 5.5547-0.03125l21.125-15.492c0.98437-0.71875 1.6523-1.793 1.8594-2.9961l4.6523-26.344c0.11719-0.38281 0.23828-0.76172 0.35547-1.1445l30.48-66.723c0.40625-0.89062 0.52734-1.8867 0.34766-2.8477z"/>
  <path d="m375.06 513.83-3.3164 1.0195c-0.65234 0.0625-1.2891 0.11719-1.9453 0.17578l-7.6289-0.89844c-2.9844-0.35156-5.5352 2.125-5.2695 5.1211l1.7656 20.043c0.16016 1.8125 1.3516 3.375 3.0547 4.0156l2.7617 1.0391c0.78906 0.29688 1.6641 0.29688 2.4531 0l9.5469-3.582c1.6992-0.64062 2.8906-2.1914 3.0547-4.0078l1.6328-17.973c0.30859-3.3516-2.8867-5.9414-6.1094-4.9531z"/>
  <path d="m599.85 472.36-11.387-6.543c-0.75781-0.4375-1.3828-1.0742-1.8008-1.8438l-9.6719-17.797c-0.18359-0.34766-0.42969-0.65234-0.71875-0.91797l-0.92969-0.86328c-3.0312-2.8086-7.957-0.66016-7.957 3.4727v3.3633c0 0.78906 0.17578 1.5742 0.51953 2.2891l7.5977 15.883c0.74219 1.5547 0.58203 3.3906-0.41797 4.7969l-9.3164 13.043c-1.0781 1.5117-1.1758 3.5078-0.24609 5.1211l3.6641 6.3516c0.73828 1.2773 0.83984 2.8281 0.26953 4.1875l-4.0898 9.8203c-0.75 1.8008 0.11719 3.8633 1.9258 4.5898l2.7188 1.0898c1.4531 0.58203 3.1211 0.125 4.0742-1.1211l13.555-17.691c0.058593-0.082032 0.11328-0.15625 0.17188-0.23828l13.609-20.234c1.5312-2.2852 0.8125-5.3867-1.5703-6.7578z"/>
  <path d="m554.44 506.36-5.3008-0.98047c-1.6055-0.29687-3.2539 0.25391-4.3555 1.4648l-38.43 42.035c-0.26172 0.38281-0.51172 0.75781-0.77344 1.1406l-8.5781 17.816c-1.2031 2.5-0.27344 5.5117 2.1328 6.8945l6.5586 3.7773c1.8984 1.0938 4.2773 0.90625 5.9805-0.47266l15.75-12.734c0.86719-0.69922 1.4883-1.6523 1.7812-2.7266l2.832-10.387c0.33984-1.2422 1.168-2.293 2.3008-2.9141l11.121-6.0664c0.71484-0.38672 1.3164-0.95703 1.7461-1.6484l11.219-17.949c0.53906-0.86719 0.78516-1.8867 0.70703-2.9023l-0.83984-10.078c-0.17187-2.1367-1.75-3.8789-3.8516-4.2695z"/>
  <path d="m285.9 197.86c0.84375 0.68359 1.8945 1.0547 2.9805 1.0547h13.465c0.75391 0 1.4922 0.17969 2.1602 0.51953l18.66 9.5586c1.9609 1.0039 2.9688 3.2266 2.4336 5.3672l-1.5469 6.1914c-0.75 2.9883 1.5156 5.8867 4.5938 5.8867h28.883c1.3398 0 2.625-0.56641 3.5195-1.5664l6.4648-7.1836c1.3359-1.4883 3.4609-1.9688 5.3125-1.2188l8.5273 3.4922c0.48828 0.19922 0.9375 0.47656 1.3359 0.82812l11.414 10.043c3.418 3.0117 9.4141 2.4805 12.312-3.7305 0.75-1.6055 0.20313-4-1.0664-5.2383l-13.406-13.113c-0.88672-0.86719-1.2461-2.1406-0.94531-3.3477l0.61719-2.4688c0.35156-1.4023-0.19922-2.875-1.3789-3.707l-12.418-8.7383c-0.51562-0.36328-1.1016-0.62109-1.7188-0.75391l-56.152-12.191c-1.5156-0.32812-3.0977 0.10547-4.2305 1.1602l-10.609 9.8789c-2.0586 1.918-5.332 1.625-7.0195-0.62891l-3.0547-4.0859c-0.33203-0.44531-0.61719-0.92188-0.84766-1.4297l-3.4922-7.6406c-1.0195-2.2344-3.582-3.3203-5.8945-2.4961l-13.219 4.6953c-3.4844 1.2422-4.2656 5.8164-1.3906 8.1406z"/>
  <path d="m409.25 199.9 3.5195 0.90625c2.1016 0.53906 4.3047-0.41797 5.3438-2.3242l1.9102-3.5195c2.1914-4.0391-2.0742-8.5195-6.2188-6.5273l-5.4258 2.6133c-3.9805 1.9141-3.4102 7.7539 0.87109 8.8516z"/>
  <path d="m511.53 306.88 2.3398 1.168c4.2109 2.1016 8.5781-2.5586 6.207-6.625l-1.168-2.0039c-1.4062-2.4102-4.5781-3.0859-6.8477-1.4648l-1.168 0.83984c-2.9062 2.0703-2.5547 6.4883 0.63672 8.0859z"/>
  <path d="m529.57 259.88 1.3906 0.75c1.3086 0.69922 2.9141 0.50781 4.0078-0.49219l1.2109-1.1016c1.625-1.4766 1.5-4.0742-0.26172-5.3828l-1.4336-1.0742c-1.5-1.1211-3.6133-0.86328-4.7969 0.58594l-1.1641 1.4258c-1.3945 1.6992-0.88672 4.25 1.0469 5.2891z"/>
  <path d="m547.82 267.42c1.5781-1.8906 0.75391-4.7734-1.582-5.5547 0 0-1.1602-1.5586-3.5664-1.1875-2.4062 0.37109-3.3672 2.2031-3.3672 3.9297 0 1.7305 3.4766 3.1602 3.4766 3.1602 1.4805 1.3398 3.7656 1.1797 5.0391-0.34766z"/>
  <path d="m477.6 220.38c0.66406 0.76562 1.8789 0.66016 2.4023-0.21484 0 0 5.125-4.9492 4.2812-7.2109-0.84375-2.2656-9.6953 0.77344-10.668 2.8086-0.97656 2.0352 3.9844 4.6172 3.9844 4.6172z"/>
  <path d="m468 206.22c1.3828-0.85156 0.53906-4.7773 0-6.7383-0.53906-1.9609-6.7383-0.35938-6.7383 2.2461 0 2.6016 5.3555 5.3398 6.7383 4.4922z"/>
  <path d="m479.43 199.27s-4.2461 0.58203-5.8164 2.4492c-1.5664 1.8672-1.3906 3.125 0 4.4883 1.3906 1.3633 7.1758 0 7.1758 0 1.9336 0 3.4961-1.5625 3.4961-3.4961v-0.22266c0-2.4961-2.5469-4.1875-4.8555-3.2188z"/>
 </g>
</svg>
