<?xml version="1.0" encoding="UTF-8"?>
<svg width="752pt" height="752pt" version="1.1" viewBox="0 0 752 752" xmlns="http://www.w3.org/2000/svg">
 <path d="m513.46 233.59c-0.42188-2.3672-2.0234-4.3555-4.2422-5.2773l-24.77-10.273c-0.62109-0.16016-1.2305-0.32031-1.8477-0.48828l-57.156-6.9648c-0.22656-0.027344-0.44922-0.070313-0.67188-0.12891l-2.3242-0.60156c-3.3828-0.875-4.9648-4.7695-3.1445-7.7539l0.015625-0.023437c1.293-2.1211 0.90625-4.8633-0.92188-6.543l-20.918-19.219c-1.4727-1.3516-3.4414-2.0156-5.4336-1.8281l-17.969 1.6875c-1.1094 0.10547-2.2227-0.18359-3.1367-0.82031l-20.406-14.113c-1.0742-0.74219-1.832-1.8672-2.1211-3.1445v-0.007812c-0.57812-2.5586-2.9531-4.2891-5.5586-4.0508l-31.695 2.9023c-0.98828 0.089844-1.9844-0.13281-2.8398-0.64062l-11.926-7.0391c-1.5078-0.89062-3.3828-0.875-4.875 0.03125l-29.574 18.023c-0.51953 0.31641-1.0938 0.53125-1.6953 0.62891l-13.227 2.1836c-3.7266 0.61719-5.2695 5.1328-2.6953 7.8984l8.7344 9.3711c0.63281 0.68359 1.0508 1.5352 1.207 2.4492l2.2578 13.551c0.22656 1.3672-0.15625 2.7656-1.0469 3.8281l-13.09 15.582c-0.31641 0.375-0.57422 0.80078-0.75781 1.2539l-5.3984 13.199c-0.47266 1.1523-0.46875 2.4453 0.003906 3.5938l2.7812 6.75c0.91406 2.2266 0.63281 4.7656-0.74219 6.7344l-0.36328 0.51953c-1.4883 2.1211-1.6914 4.8867-0.53125 7.2031l2.5898 5.1797c0.33984 0.68359 0.84375 1.2734 1.4648 1.7188l11.203 8.0898c0.45312 0.32812 0.84375 0.73438 1.1562 1.1992l25.312 37.629c0.38672 0.57812 0.89453 1.0625 1.4922 1.4141l32.719 19.629c1.2734 0.76172 2.1133 2.0781 2.2734 3.5508l8.2422 76.219c0.085938 0.36328 0.16406 0.73047 0.25 1.0938l5.8203 16.164c0.26562 0.73828 0.34766 1.5312 0.22656 2.3008l-4.5039 30.246c-0.19922 1.3203 0.17578 2.6602 1.0195 3.6992l4.0273 4.9219c0.6875 0.83984 1.0664 1.8906 1.0703 2.9727l0.13672 25.484c0.015625 2.7812 2.2109 5.0586 4.9883 5.1758l0.88281 0.039062c2.3398 0.097657 4.3281 1.7539 4.8555 4.0352l1.5 6.5078c0.29297 1.2695 0.046875 2.6055-0.67188 3.6953l-8.0273 12.039c-1.1094 1.668 4.418 5.2695 4.418 5.2695 1.1211 0.32031 0.40234 4.4531-0.25391 7.3633-0.41797 1.8555-0.09375 3.8086 0.93359 5.4102l21.43 33.406c0.75781 1.1836 1.8516 2.1133 3.1445 2.6719l30.855 13.309c2.1992 0.94531 4.7227 0.71875 6.7109-0.60547l0.19922-0.13281c4.3477-2.9023 4.1445-9.3633-0.38281-11.98l-2.2344-1.293c-0.97656-0.5625-1.8047-1.3555-2.4102-2.3047l-13.402-20.977c-1.2891-2.0156-1.4688-4.5547-0.46875-6.7344l7.9609-17.414c1.1289-2.4688 0.73828-5.3672-0.99609-7.4492l-9.3945-11.266c-1.2266-1.4727-1.4453-3.5469-0.55078-5.2422l11.336-21.477c0.47656-0.91016 0.75391-1.9102 0.80469-2.9297l1.0742-20.977c0.16016-3.125 2.3594-5.7695 5.3984-6.5039l9.5664-2.2969c1.9844-0.47656 3.6641-1.7891 4.6094-3.5977l5.5312-10.602c0.97266-1.8672 1.0625-4.0625 0.24609-6l-0.28906-0.69141c-1.957-4.6523 1.457-9.793 6.5039-9.793h1.4336c2.6562 0 5.0898-1.4961 6.293-3.8633l22.34-44.062c0.86719-1.7148 1-3.707 0.36328-5.5234l-2.5781-7.3633c-0.87109-2.4922-0.28125-5.2578 1.5312-7.1758l19.199-20.324c1.332-1.4102 3.1875-2.2109 5.1289-2.2109h5.5898c2.5898 0 4.9727-1.4219 6.2031-3.6953l6.4141-11.84c0.55859-1.0312 0.85156-2.1875 0.85156-3.3633v-40.504c0-1.2461 0.33203-2.4688 0.95703-3.5469l15.562-26.766c0.83984-1.4453 1.1406-3.1406 0.84766-4.7891z"/>
</svg>
